<mxfile host="65bd71144e">
    <diagram id="dujYdfgyxahGhiFwL2Tv" name="Page-1">
        <mxGraphModel dx="5568" dy="4102" grid="0" gridSize="10" guides="1" tooltips="1" connect="1" arrows="1" fold="1" page="1" pageScale="1" pageWidth="3000" pageHeight="3000" background="none" math="0" shadow="0">
            <root>
                <mxCell id="0"/>
                <mxCell id="1" parent="0"/>
                <mxCell id="37" value="" style="whiteSpace=wrap;html=1;aspect=fixed;strokeWidth=10;fontFamily=Tahoma;fontSize=20;fillColor=none;rounded=1;" parent="1" vertex="1">
                    <mxGeometry x="890" y="-420" width="513.47" height="513.47" as="geometry"/>
                </mxCell>
                <mxCell id="2" value="" style="shape=mxgraph.cisco.computers_and_peripherals.web_browser;html=1;pointerEvents=1;dashed=0;fillColor=#036897;strokeColor=#ffffff;strokeWidth=2;verticalLabelPosition=bottom;verticalAlign=top;align=center;outlineConnect=0;rounded=1;" parent="1" vertex="1">
                    <mxGeometry x="-130" y="-110" width="106.56" height="110" as="geometry"/>
                </mxCell>
                <mxCell id="3" value="" style="shape=mxgraph.cisco.servers.file_server;html=1;pointerEvents=1;dashed=0;fillColor=#036897;strokeColor=#ffffff;strokeWidth=2;verticalLabelPosition=bottom;verticalAlign=top;align=center;outlineConnect=0;rounded=1;" parent="1" vertex="1">
                    <mxGeometry x="1221.09" y="-288.47" width="87.83" height="118.47" as="geometry"/>
                </mxCell>
                <mxCell id="4" value="" style="shape=mxgraph.cisco.storage.relational_database;html=1;pointerEvents=1;dashed=0;fillColor=#036897;strokeColor=#ffffff;strokeWidth=2;verticalLabelPosition=bottom;verticalAlign=top;align=center;outlineConnect=0;fontFamily=Helvetica;fontSize=12;fontColor=default;rounded=1;" parent="1" vertex="1">
                    <mxGeometry x="1210" y="-93" width="80" height="93.33" as="geometry"/>
                </mxCell>
                <mxCell id="5" value="" style="shape=mxgraph.cisco.servers.standard_host;html=1;pointerEvents=1;dashed=0;fillColor=#036897;strokeColor=#ffffff;strokeWidth=2;verticalLabelPosition=bottom;verticalAlign=top;align=center;outlineConnect=0;rounded=1;" parent="1" vertex="1">
                    <mxGeometry x="950" y="-266.79" width="73" height="105.26" as="geometry"/>
                </mxCell>
                <mxCell id="6" value="" style="shape=mxgraph.cisco.wireless.ground_terminal;html=1;pointerEvents=1;dashed=0;fillColor=#036897;strokeColor=#ffffff;strokeWidth=2;verticalLabelPosition=bottom;verticalAlign=top;align=center;outlineConnect=0;rounded=1;" parent="1" vertex="1">
                    <mxGeometry x="133.5" y="-645.21" width="99" height="122" as="geometry"/>
                </mxCell>
                <mxCell id="7" value="" style="shape=mxgraph.cisco.storage.cloud;html=1;pointerEvents=1;dashed=0;fillColor=#036897;strokeColor=#ffffff;strokeWidth=2;verticalLabelPosition=bottom;verticalAlign=top;align=center;outlineConnect=0;rounded=1;" parent="1" vertex="1">
                    <mxGeometry x="80" y="-595.21" width="186" height="106" as="geometry"/>
                </mxCell>
                <mxCell id="30" value="&lt;b&gt;&lt;font style=&quot;font-size: 20px;&quot; face=&quot;Tahoma&quot;&gt;INTERNET&lt;/font&gt;&lt;/b&gt;" style="text;html=1;align=center;verticalAlign=middle;resizable=0;points=[];autosize=1;strokeColor=none;fillColor=none;rounded=1;" parent="1" vertex="1">
                    <mxGeometry x="113.5" y="-487" width="130" height="40" as="geometry"/>
                </mxCell>
                <mxCell id="31" value="&lt;font face=&quot;Tahoma&quot;&gt;&lt;span style=&quot;font-size: 20px;&quot;&gt;&lt;b&gt;WEB CLIENT&lt;/b&gt;&lt;/span&gt;&lt;/font&gt;" style="text;html=1;align=center;verticalAlign=middle;resizable=0;points=[];autosize=1;rounded=1;" parent="1" vertex="1">
                    <mxGeometry x="-151.72" y="3.6699999999999733" width="150" height="40" as="geometry"/>
                </mxCell>
                <mxCell id="32" value="&lt;b&gt;&lt;font style=&quot;font-size: 20px;&quot; face=&quot;Tahoma&quot;&gt;WEB SERVER&lt;br&gt;(NGINX)&lt;br&gt;&lt;/font&gt;&lt;/b&gt;" style="text;html=1;align=center;verticalAlign=middle;resizable=0;points=[];autosize=1;strokeColor=none;fillColor=none;rounded=1;" parent="1" vertex="1">
                    <mxGeometry x="906.5" y="-161.53000000000003" width="160" height="60" as="geometry"/>
                </mxCell>
                <mxCell id="33" value="&lt;font face=&quot;Tahoma&quot;&gt;&lt;span style=&quot;font-size: 20px;&quot;&gt;&lt;b&gt;DATABASE&lt;br&gt;(MySQL)&lt;br&gt;&lt;/b&gt;&lt;/span&gt;&lt;/font&gt;" style="text;html=1;align=center;verticalAlign=middle;resizable=0;points=[];autosize=1;strokeColor=none;fillColor=none;rounded=1;" parent="1" vertex="1">
                    <mxGeometry x="1185" y="-10" width="130" height="60" as="geometry"/>
                </mxCell>
                <mxCell id="34" value="&lt;b&gt;&lt;font style=&quot;font-size: 20px;&quot; face=&quot;Tahoma&quot;&gt;APPLICATION SERVER&lt;br&gt;(Python 3.12)&lt;br&gt;&lt;/font&gt;&lt;/b&gt;" style="text;html=1;align=center;verticalAlign=middle;resizable=0;points=[];autosize=1;strokeColor=none;fillColor=none;rounded=1;" parent="1" vertex="1">
                    <mxGeometry x="1140" y="-170.00000000000003" width="250" height="60" as="geometry"/>
                </mxCell>
                <mxCell id="35" value="&lt;b&gt;&lt;font style=&quot;font-size: 20px;&quot; face=&quot;Tahoma&quot;&gt;CODE BASE&lt;/font&gt;&lt;/b&gt;" style="text;html=1;align=center;verticalAlign=middle;resizable=0;points=[];autosize=1;strokeColor=none;fillColor=none;rounded=1;" parent="1" vertex="1">
                    <mxGeometry x="906.5" y="-2.842170943040401e-14" width="140" height="40" as="geometry"/>
                </mxCell>
                <mxCell id="42" value="" style="line;strokeWidth=4;direction=west;html=1;perimeter=backbonePerimeter;points=[];outlineConnect=0;fontFamily=Tahoma;fontSize=20;fillColor=none;rotation=0;rounded=1;" parent="1" vertex="1">
                    <mxGeometry x="890" y="-340" width="510" height="10" as="geometry"/>
                </mxCell>
                <mxCell id="44" value="" style="points=[[0.015,0.015,0],[0.985,0.015,0],[0.985,0.985,0],[0.015,0.985,0],[0.25,0,0],[0.5,0,0],[0.75,0,0],[1,0.25,0],[1,0.5,0],[1,0.75,0],[0.75,1,0],[0.5,1,0],[0.25,1,0],[0,0.75,0],[0,0.5,0],[0,0.25,0]];verticalLabelPosition=bottom;html=1;verticalAlign=top;aspect=fixed;align=center;pointerEvents=1;shape=mxgraph.cisco19.dns_server;fillColor=#005073;strokeColor=none;strokeWidth=10;fontFamily=Tahoma;fontSize=20;rounded=1;" parent="1" vertex="1">
                    <mxGeometry x="410" y="-600" width="78.65" height="143" as="geometry"/>
                </mxCell>
                <mxCell id="46" value="" style="aspect=fixed;pointerEvents=1;shadow=0;dashed=0;html=1;strokeColor=none;labelPosition=center;verticalLabelPosition=bottom;verticalAlign=top;align=center;fillColor=#00188D;shape=mxgraph.mscae.enterprise.folder;strokeWidth=10;fontFamily=Tahoma;fontSize=20;rounded=1;" parent="1" vertex="1">
                    <mxGeometry x="930.57" y="-85.83" width="91.86" height="79" as="geometry"/>
                </mxCell>
                <mxCell id="49" value="&lt;b&gt;&lt;font style=&quot;font-size: 29px;&quot; face=&quot;Tahoma&quot;&gt;8.8.8.8&lt;/font&gt;&lt;/b&gt;" style="text;html=1;align=center;verticalAlign=middle;resizable=0;points=[];autosize=1;strokeColor=none;fillColor=none;rounded=1;" parent="1" vertex="1">
                    <mxGeometry x="1065" y="-400" width="120" height="50" as="geometry"/>
                </mxCell>
                <mxCell id="50" value="" style="shape=mxgraph.cisco.storage.cloud;pointerEvents=1;dashed=0;fillColor=#036897;strokeColor=#ffffff;strokeWidth=2;verticalLabelPosition=bottom;verticalAlign=top;align=center;outlineConnect=0;rounded=1;" parent="1" vertex="1">
                    <mxGeometry x="320" y="130" width="186" height="106" as="geometry"/>
                </mxCell>
                <mxCell id="52" value="&lt;b&gt;&lt;font style=&quot;font-size: 20px;&quot; face=&quot;Tahoma&quot;&gt;HTTP Request&lt;br&gt;www.foobar.com&lt;br&gt;&lt;/font&gt;&lt;/b&gt;" style="text;html=1;align=center;verticalAlign=middle;resizable=0;points=[];autosize=1;strokeColor=none;fillColor=none;rounded=1;" parent="1" vertex="1">
                    <mxGeometry x="-150" y="-348.47" width="200" height="60" as="geometry"/>
                </mxCell>
                <mxCell id="53" value="&lt;b&gt;&lt;font style=&quot;font-size: 20px;&quot; face=&quot;Tahoma&quot;&gt;HTTP Response:&lt;br&gt;Static File&lt;br&gt;&lt;/font&gt;&lt;/b&gt;" style="text;html=1;align=center;verticalAlign=middle;resizable=0;points=[];autosize=1;strokeColor=none;fillColor=none;rounded=1;" parent="1" vertex="1">
                    <mxGeometry x="625" y="153" width="190" height="60" as="geometry"/>
                </mxCell>
                <mxCell id="54" value="&lt;b&gt;&lt;font style=&quot;font-size: 20px;&quot; face=&quot;Tahoma&quot;&gt;Name: www.foobar.com&lt;br&gt;IP Adress: 8.8.8.8&lt;br&gt;&lt;/font&gt;&lt;/b&gt;" style="text;html=1;align=left;verticalAlign=middle;resizable=0;points=[];autosize=1;strokeColor=none;fillColor=none;rounded=1;" parent="1" vertex="1">
                    <mxGeometry x="500" y="-560" width="270" height="60" as="geometry"/>
                </mxCell>
                <mxCell id="55" value="&lt;b&gt;&lt;font style=&quot;font-size: 20px;&quot; face=&quot;Tahoma&quot;&gt;INTERNET&lt;/font&gt;&lt;/b&gt;" style="text;html=1;align=center;verticalAlign=middle;resizable=0;points=[];autosize=1;strokeColor=none;fillColor=none;rounded=1;" parent="1" vertex="1">
                    <mxGeometry x="360" y="240" width="130" height="40" as="geometry"/>
                </mxCell>
                <mxCell id="57" value="" style="edgeStyle=none;orthogonalLoop=1;jettySize=auto;html=1;strokeWidth=5;" edge="1" parent="1">
                    <mxGeometry width="100" relative="1" as="geometry">
                        <mxPoint x="-60" y="-115.16" as="sourcePoint"/>
                        <mxPoint x="-60" y="-285.15999999999997" as="targetPoint"/>
                        <Array as="points"/>
                    </mxGeometry>
                </mxCell>
                <mxCell id="60" value="" style="edgeStyle=none;orthogonalLoop=1;jettySize=auto;html=1;strokeWidth=5;" edge="1" parent="1" target="7">
                    <mxGeometry width="100" relative="1" as="geometry">
                        <mxPoint x="-60" y="-339.9999999999999" as="sourcePoint"/>
                        <mxPoint x="60" y="-490" as="targetPoint"/>
                        <Array as="points">
                            <mxPoint x="10" y="-450"/>
                        </Array>
                    </mxGeometry>
                </mxCell>
                <mxCell id="61" value="" style="edgeStyle=none;orthogonalLoop=1;jettySize=auto;html=1;strokeWidth=5;" edge="1" parent="1">
                    <mxGeometry width="100" relative="1" as="geometry">
                        <mxPoint x="290" y="-529.75" as="sourcePoint"/>
                        <mxPoint x="390" y="-529.75" as="targetPoint"/>
                        <Array as="points"/>
                    </mxGeometry>
                </mxCell>
                <mxCell id="62" value="" style="edgeStyle=none;orthogonalLoop=1;jettySize=auto;html=1;strokeWidth=5;" edge="1" parent="1">
                    <mxGeometry width="100" relative="1" as="geometry">
                        <mxPoint x="730" y="-520" as="sourcePoint"/>
                        <mxPoint x="1140" y="-440" as="targetPoint"/>
                        <Array as="points">
                            <mxPoint x="1140" y="-520"/>
                        </Array>
                    </mxGeometry>
                </mxCell>
                <mxCell id="67" value="" style="edgeStyle=none;orthogonalLoop=1;jettySize=auto;html=1;strokeWidth=5;" edge="1" parent="1">
                    <mxGeometry width="100" relative="1" as="geometry">
                        <mxPoint x="1090" y="120" as="sourcePoint"/>
                        <mxPoint x="506" y="210" as="targetPoint"/>
                        <Array as="points">
                            <mxPoint x="1090" y="210"/>
                        </Array>
                    </mxGeometry>
                </mxCell>
                <mxCell id="68" value="" style="edgeStyle=none;orthogonalLoop=1;jettySize=auto;html=1;strokeWidth=5;" edge="1" parent="1">
                    <mxGeometry width="100" relative="1" as="geometry">
                        <mxPoint x="294" y="190" as="sourcePoint"/>
                        <mxPoint x="-80" y="60" as="targetPoint"/>
                        <Array as="points">
                            <mxPoint x="30" y="190"/>
                        </Array>
                    </mxGeometry>
                </mxCell>
            </root>
        </mxGraphModel>
    </diagram>
</mxfile>